<svg width="378" height="224" viewBox="0 0 378 224" fill="none" xmlns="http://www.w3.org/2000/svg">
<path d="M82.6705 1.51199L75.5025 81H49.1345L42.2225 45.8H41.1985L35.4385 81H8.9425L0.622498 1.51199H21.6145L24.9425 43.624H26.2225L31.5985 1.51199H52.9745L58.8625 43.624H60.1425L62.4465 1.51199H82.6705Z" fill="black"/>
<path d="M95.5555 9.83199C100.505 3.43199 108.569 0.231995 119.747 0.231995C130.926 0.231995 138.905 3.38933 143.684 9.70399C148.548 16.0187 150.979 26.3013 150.979 40.552C150.979 54.7173 148.505 65.2133 143.556 72.04C138.606 78.8667 130.585 82.28 119.492 82.28C108.398 82.28 100.419 78.9093 95.5555 72.168C90.6915 65.4267 88.2595 54.9733 88.2595 40.808C88.2595 26.5573 90.6915 16.232 95.5555 9.83199ZM128.964 40.552C128.964 32.7013 128.324 27.4107 127.044 24.68C125.849 21.864 123.332 20.456 119.492 20.456C115.737 20.456 113.305 21.864 112.196 24.68C111.086 27.4107 110.532 32.6587 110.532 40.424V43.496C110.532 51.7733 111.129 57.2347 112.324 59.88C113.604 62.44 116.121 63.72 119.876 63.72C123.716 63.72 126.19 62.4827 127.299 60.008C128.409 57.5333 128.964 52.4133 128.964 44.648V40.552Z" fill="black"/>
<path d="M215.631 58.088C215.631 73.3627 207.439 81 191.055 81H159.695V1.51199H190.415C198.521 1.51199 204.537 3.17599 208.462 6.504C212.388 9.74666 214.35 14.952 214.35 22.12C214.35 29.288 211.406 34.7493 205.518 38.504V39.272C212.26 41.9173 215.631 48.1893 215.631 58.088ZM185.935 66.792C188.495 66.792 190.201 66.2373 191.055 65.128C191.993 63.9333 192.462 61.544 192.462 57.96C192.462 54.2907 191.993 51.7307 191.055 50.28C190.116 48.744 188.409 47.976 185.935 47.976H181.839V66.792H185.935ZM186.062 35.56C188.025 35.56 189.391 34.9627 190.159 33.768C190.927 32.5733 191.311 30.4827 191.311 27.496C191.311 24.424 190.884 22.2907 190.031 21.096C189.263 19.816 187.897 19.176 185.935 19.176H181.839V35.56H186.062Z" fill="black"/>
<path d="M279.005 58.088C279.005 73.3627 270.814 81 254.43 81H223.07V1.51199H253.79C261.896 1.51199 267.912 3.17599 271.837 6.504C275.763 9.74666 277.725 14.952 277.725 22.12C277.725 29.288 274.781 34.7493 268.893 38.504V39.272C275.635 41.9173 279.005 48.1893 279.005 58.088ZM249.31 66.792C251.87 66.792 253.576 66.2373 254.43 65.128C255.368 63.9333 255.837 61.544 255.837 57.96C255.837 54.2907 255.368 51.7307 254.43 50.28C253.491 48.744 251.784 47.976 249.31 47.976H245.214V66.792H249.31ZM249.438 35.56C251.4 35.56 252.766 34.9627 253.534 33.768C254.302 32.5733 254.685 30.4827 254.685 27.496C254.685 24.424 254.259 22.2907 253.406 21.096C252.638 19.816 251.272 19.176 249.31 19.176H245.214V35.56H249.438Z" fill="black"/>
<path d="M326.893 81H286.444V1.51199H308.332V63.208H328.172L326.893 81Z" fill="black"/>
<path d="M375.828 81H332.819V1.51199H377.108L375.828 21.096H354.707V33H373.012V49.896H354.707V63.08H377.108L375.828 81Z" fill="black"/>
<path d="M78.59 161.84H63.742V222H41.854V161.84H26.11L27.39 142.512H79.87L78.59 161.84Z" fill="black"/>
<path d="M89.618 150.832C94.5673 144.432 102.631 141.232 113.81 141.232C124.989 141.232 132.967 144.389 137.746 150.704C142.61 157.019 145.042 167.301 145.042 181.552C145.042 195.717 142.567 206.213 137.618 213.04C132.669 219.867 124.647 223.28 113.554 223.28C102.461 223.28 94.482 219.909 89.618 213.168C84.754 206.427 82.322 195.973 82.322 181.808C82.322 167.557 84.754 157.232 89.618 150.832ZM123.026 181.552C123.026 173.701 122.386 168.411 121.106 165.68C119.911 162.864 117.394 161.456 113.554 161.456C109.799 161.456 107.367 162.864 106.258 165.68C105.149 168.411 104.594 173.659 104.594 181.424V184.496C104.594 192.773 105.191 198.235 106.386 200.88C107.666 203.44 110.183 204.72 113.938 204.72C117.778 204.72 120.253 203.483 121.362 201.008C122.471 198.533 123.026 193.413 123.026 185.648V181.552Z" fill="black"/>
<path d="M232.733 142.512L225.565 222H199.197L192.285 186.8H191.261L185.501 222H159.005L150.685 142.512H171.677L175.005 184.624H176.285L181.661 142.512H203.037L208.925 184.624H210.205L212.509 142.512H232.733Z" fill="black"/>
<path d="M283.89 222H240.882V142.512H285.17L283.89 162.096H262.77V174H281.074V190.896H262.77V204.08H285.17L283.89 222Z" fill="black"/>
<path d="M347.032 167.728C347.032 172.507 346.307 176.475 344.856 179.632C343.405 182.789 341.144 185.648 338.072 188.208L348.696 222H325.016L317.08 193.328H314.136V222H292.632V142.512H322.328C330.861 142.512 337.091 144.517 341.016 148.528C345.027 152.539 347.032 158.939 347.032 167.728ZM317.464 179.888C319.683 179.888 321.261 179.248 322.2 177.968C323.139 176.688 323.608 174.384 323.608 171.056C323.608 167.643 323.139 165.296 322.2 164.016C321.261 162.651 319.725 161.968 317.592 161.968H314.136V179.888H317.464Z" fill="black"/>
</svg>
